<svg width="37" height="38" viewBox="0 0 37 38" fill="none" xmlns="http://www.w3.org/2000/svg">
<g id="Arrow Circle Right">
<path id="Vector" d="M19.59 26.2567L25.7562 20.0905C26.0443 19.8006 26.2059 19.4086 26.2059 19C26.2059 18.5914 26.0443 18.1994 25.7562 17.9095L19.59 11.7434C19.3001 11.4587 18.9094 11.2999 18.503 11.3018C18.0966 11.3036 17.7073 11.4659 17.42 11.7533C17.1326 12.0406 16.9703 12.4299 16.9685 12.8363C16.9666 13.2427 17.1254 13.6334 17.4101 13.9233L20.9451 17.4584H12.3334C11.9245 17.4584 11.5324 17.6208 11.2433 17.9099C10.9542 18.199 10.7917 18.5912 10.7917 19C10.7917 19.4089 10.9542 19.8011 11.2433 20.0902C11.5324 20.3793 11.9245 20.5417 12.3334 20.5417H20.9451L17.41 24.0768C17.124 24.3665 16.9641 24.7576 16.9654 25.1647C16.9667 25.5719 17.129 25.962 17.4169 26.2499C17.7048 26.5378 18.0949 26.7001 18.5021 26.7013C18.9092 26.7026 19.3003 26.5428 19.59 26.2567Z" fill="#ED017F"/>
<path id="Vector_2" d="M33.9166 18.9999C33.9166 15.9508 33.0124 12.9701 31.3184 10.4349C29.6244 7.89963 27.2167 5.92363 24.3996 4.75678C21.5826 3.58993 18.4828 3.28463 15.4923 3.87949C12.5017 4.47434 9.75476 5.94264 7.5987 8.0987C5.44264 10.2548 3.97434 13.0017 3.37949 15.9923C2.78463 18.9828 3.08993 22.0826 4.25678 24.8996C5.42363 27.7167 7.39963 30.1244 9.93488 31.8184C12.4701 33.5124 15.4508 34.4166 18.4999 34.4166C22.5873 34.412 26.5059 32.7863 29.3961 29.8961C32.2863 27.0059 33.912 23.0873 33.9166 18.9999ZM17.41 26.2566C17.2668 26.1134 17.1532 25.9435 17.0757 25.7565C16.9982 25.5695 16.9583 25.369 16.9583 25.1665C16.9583 24.9641 16.9982 24.7636 17.0757 24.5766C17.1532 24.3896 17.2668 24.2197 17.41 24.0765L20.9449 20.5416H12.3333C11.9244 20.5416 11.5323 20.3792 11.2431 20.09C10.954 19.8009 10.7916 19.4088 10.7916 18.9999C10.7916 18.5911 10.954 18.1989 11.2431 17.9098C11.5323 17.6207 11.9244 17.4583 12.3333 17.4583H20.9449L17.41 13.9232C17.1252 13.6332 16.9665 13.2426 16.9683 12.8362C16.9702 12.4297 17.1324 12.0405 17.4198 11.7531C17.7072 11.4658 18.0964 11.3035 18.5028 11.3016C18.9092 11.2998 19.2999 11.4585 19.5899 11.7433L25.7561 17.9095C26.0441 18.1993 26.2057 18.5914 26.2057 19C26.2057 19.4086 26.0441 19.8006 25.7561 20.0905L19.5899 26.2566C19.4468 26.3997 19.2769 26.5133 19.0898 26.5908C18.9028 26.6683 18.7024 26.7082 18.4999 26.7082C18.2975 26.7082 18.097 26.6683 17.91 26.5908C17.723 26.5133 17.5531 26.3997 17.41 26.2566Z" fill="#FCE0EF"/>
</g>
</svg>
